<svg version="1.1" viewBox="0.0 0.0 157.14698162729658 102.93963254593176" fill="none" stroke="none" stroke-linecap="square" stroke-miterlimit="10" xmlns:xlink="http://www.w3.org/1999/xlink" xmlns="http://www.w3.org/2000/svg"><clipPath id="p.0"><path d="m0 0l157.14699 0l0 102.93964l-157.14699 0l0 -102.93964z" clip-rule="nonzero"/></clipPath><g clip-path="url(#p.0)"><path fill="#000000" fill-opacity="0.0" d="m0 0l157.14699 0l0 102.93964l-157.14699 0z" fill-rule="evenodd"/><path fill="#000000" fill-opacity="0.0" d="m2.1848302 4.6585693l0 0c0 -1.264497 1.0250773 -2.2895744 2.2895741 -2.2895744l148.0877 0c0.60723877 0 1.1896057 0.24122238 1.6189728 0.6706009c0.42938232 0.42937827 0.6706085 1.0117404 0.6706085 1.6189735l0 93.98194c0 1.2644958 -1.0250854 2.2895737 -2.2895813 2.2895737l-148.0877 0c-1.2644968 0 -2.2895741 -1.0250778 -2.2895741 -2.2895737z" fill-rule="evenodd"/><path stroke="#000000" stroke-width="4.0" stroke-linejoin="round" stroke-linecap="butt" d="m2.1848302 4.6585693l0 0c0 -1.264497 1.0250773 -2.2895744 2.2895741 -2.2895744l148.0877 0c0.60723877 0 1.1896057 0.24122238 1.6189728 0.6706009c0.42938232 0.42937827 0.6706085 1.0117404 0.6706085 1.6189735l0 93.98194c0 1.2644958 -1.0250854 2.2895737 -2.2895813 2.2895737l-148.0877 0c-1.2644968 0 -2.2895741 -1.0250778 -2.2895741 -2.2895737z" fill-rule="evenodd"/><path fill="#000000" fill-opacity="0.0" d="m17.218555 29.89284l0 0c0 -1.2780533 1.036068 -2.3141212 2.3141232 -2.3141212l9.256208 0l0 0c0.61374474 0 1.2023506 0.24380875 1.6363316 0.6777897c0.43398285 0.43398285 0.6777916 1.0225887 0.6777916 1.6363316l0 43.513405c0 1.2780533 -1.036068 2.3141174 -2.3141232 2.3141174l-9.256208 0c-1.2780552 0 -2.3141232 -1.0360641 -2.3141232 -2.3141174z" fill-rule="evenodd"/><path stroke="#000000" stroke-width="3.0" stroke-linejoin="round" stroke-linecap="butt" d="m17.218555 29.89284l0 0c0 -1.2780533 1.036068 -2.3141212 2.3141232 -2.3141212l9.256208 0l0 0c0.61374474 0 1.2023506 0.24380875 1.6363316 0.6777897c0.43398285 0.43398285 0.6777916 1.0225887 0.6777916 1.6363316l0 43.513405c0 1.2780533 -1.036068 2.3141174 -2.3141232 2.3141174l-9.256208 0c-1.2780552 0 -2.3141232 -1.0360641 -2.3141232 -2.3141174z" fill-rule="evenodd"/><path fill="#000000" fill-opacity="0.0" d="m41.50082 78.56377l104.70804 -59.900024" fill-rule="evenodd"/><path stroke="#000000" stroke-width="3.0" stroke-linejoin="round" stroke-linecap="butt" d="m41.50082 78.56377l104.70804 -59.900024" fill-rule="evenodd"/><path fill="#000000" fill-opacity="0.0" d="m146.74208 18.971552c-7.6108093 22.626387 -50.51899 59.1473 -61.291946 37.819717" fill-rule="evenodd"/><path stroke="#000000" stroke-width="3.0" stroke-linejoin="round" stroke-linecap="butt" d="m146.74208 18.971552c-7.6108093 22.626387 -50.51899 59.1473 -61.291946 37.819717" fill-rule="evenodd"/><path fill="#000000" fill-opacity="0.0" d="m43.817482 78.56633l5.218319 5.1712265" fill-rule="evenodd"/><path stroke="#000000" stroke-width="3.0" stroke-linejoin="round" stroke-linecap="butt" d="m43.817482 78.56633l5.218319 5.1712265" fill-rule="evenodd"/><path fill="#000000" fill-opacity="0.0" d="m49.30759 84.63534l36.15549 -20.684898" fill-rule="evenodd"/><path stroke="#000000" stroke-width="3.0" stroke-linejoin="round" stroke-linecap="butt" d="m49.30759 84.63534l36.15549 -20.684898" fill-rule="evenodd"/></g></svg>